<svg width="17" height="17" viewBox="0 0 17 17" fill="none" xmlns="http://www.w3.org/2000/svg">
<path d="M8.42505 10.1284L2.46307 16.0904C2.24 16.3135 1.9561 16.425 1.61136 16.425C1.26662 16.425 0.982717 16.3135 0.75965 16.0904C0.536582 15.8673 0.425049 15.5834 0.425049 15.2387C0.425049 14.894 0.536582 14.61 0.75965 14.387L6.72163 8.425L0.75965 2.46303C0.536582 2.23996 0.425049 1.95605 0.425049 1.61131C0.425049 1.26657 0.536582 0.982671 0.75965 0.759604C0.982717 0.536537 1.26662 0.425003 1.61136 0.425003C1.9561 0.425003 2.24 0.536537 2.46307 0.759604L8.42505 6.72158L14.387 0.759604C14.6101 0.536537 14.894 0.425003 15.2387 0.425003C15.5835 0.425003 15.8674 0.536537 16.0904 0.759604C16.3135 0.982671 16.425 1.26657 16.425 1.61131C16.425 1.95605 16.3135 2.23996 16.0904 2.46303L10.1285 8.425L16.0904 14.387C16.3135 14.61 16.425 14.894 16.425 15.2387C16.425 15.5834 16.3135 15.8673 16.0904 16.0904C15.8674 16.3135 15.5835 16.425 15.2387 16.425C14.894 16.425 14.6101 16.3135 14.387 16.0904L8.42505 10.1284Z" fill="#F7F4EF"/>
</svg>
