<svg width="24" height="24" viewBox="0 0 24 24" fill="none" xmlns="http://www.w3.org/2000/svg">
<path d="M13.0032 22.9888C12.4505 23.546 11.5495 23.546 10.9968 22.9888V22.9888C8.82187 20.7907 7.02835 18.8969 5.6162 17.3075C4.20405 15.718 3.08058 14.3079 2.24577 13.0771C1.41095 11.8462 0.82795 10.7355 0.49677 9.74497C0.16559 8.75438 0 7.75886 0 6.75841C0 4.83999 0.584212 3.23399 1.75264 1.94039C2.92106 0.646798 4.36519 0 6.08503 0C7.26073 0 8.35101 0.328107 9.35586 0.984321V0.984321C10.8802 1.97975 13.1506 2.00446 14.6663 0.996024C14.6921 0.978894 14.7179 0.961998 14.7437 0.945338C15.721 0.315112 16.7781 0 17.915 0C19.6348 0 21.0789 0.646798 22.2474 1.94039C23.4158 3.23399 24 4.83999 24 6.75841C24 7.75886 23.8344 8.75438 23.5032 9.74497C23.1721 10.7355 22.589 11.8462 21.7542 13.0771C20.9194 14.3079 19.7959 15.718 18.3838 17.3075C16.9716 18.8969 15.1781 20.7907 13.0032 22.9888V22.9888Z" fill="#202020"/>
</svg>
