<svg width="24" height="25" viewBox="0 0 24 25" fill="none" xmlns="http://www.w3.org/2000/svg">
<path d="M19.3104 6.57167C18.3268 7.61265 16.6705 7.61346 15.6859 6.57345L14.6337 5.46206C14.3275 5.13873 14.3231 4.63388 14.6235 4.30522V4.30522C14.9567 3.94068 15.5295 3.93624 15.8683 4.29556L16.3767 4.83483C16.985 5.47991 18.0113 5.47816 18.6174 4.83101L22.1869 1.0193C22.5265 0.65673 23.1015 0.655751 23.4423 1.01717V1.01717C23.7554 1.34922 23.7551 1.86786 23.4416 2.19958L19.3104 6.57167ZM4.24239 24.0698C2.25599 24.9736 0 23.5215 0 21.3391V2.22606C0 1.62849 0.20663 1.10809 0.619892 0.664852C1.03313 0.221617 1.52614 0 2.09892 0H10.8937C11.8156 0 12.3751 1.1068 12.0742 1.9782V1.9782C11.8325 2.67766 11.7117 3.43303 11.7117 4.24431C11.7117 5.97764 12.2449 7.47749 13.3111 8.74386C14.3774 10.0102 15.6959 10.7503 17.2668 10.9639C17.5765 11.0055 17.8517 11.0263 18.0924 11.0263V11.0263C18.5309 11.0263 18.9179 11.3539 18.9179 11.7925V21.3391C18.9179 23.5215 16.6619 24.9736 14.6755 24.0698L10.7014 22.2616C9.91203 21.9025 9.00591 21.9025 8.21657 22.2616L4.24239 24.0698Z" fill="#48A82F"/>
</svg>
