<svg width="23" height="25" viewBox="0 0 23 25" fill="none" xmlns="http://www.w3.org/2000/svg">
<path d="M0 21.328V8.944C0 8.50827 0.0974667 8.09547 0.2924 7.7056C0.487333 7.31573 0.7568 6.99467 1.1008 6.7424L9.3568 0.5504C9.8384 0.183467 10.3888 0 11.008 0C11.6272 0 12.1776 0.183467 12.6592 0.5504L20.9152 6.7424C21.2592 6.99467 21.5287 7.31573 21.7236 7.7056C21.9185 8.09547 22.016 8.50827 22.016 8.944V21.328C22.016 22.0848 21.7465 22.7327 21.2076 23.2716C20.6687 23.8105 20.0208 24.08 19.264 24.08H15.136C14.7461 24.08 14.4193 23.9481 14.1556 23.6844C13.8919 23.4207 13.76 23.0939 13.76 22.704V15.824C13.76 15.4341 13.6281 15.1073 13.3644 14.8436C13.1007 14.5799 12.7739 14.448 12.384 14.448H9.632C9.24213 14.448 8.91533 14.5799 8.6516 14.8436C8.38787 15.1073 8.256 15.4341 8.256 15.824V22.704C8.256 23.0939 8.12413 23.4207 7.8604 23.6844C7.59667 23.9481 7.26987 24.08 6.88 24.08H2.752C1.9952 24.08 1.34733 23.8105 0.8084 23.2716C0.269467 22.7327 0 22.0848 0 21.328Z" fill="#F7F4EF"/>
</svg>
