<svg width="59" height="58" viewBox="0 0 59 58" fill="none" xmlns="http://www.w3.org/2000/svg">
<mask id="mask0_31_31" style="mask-type:alpha" maskUnits="userSpaceOnUse" x="0" y="0" width="59" height="58">
<rect width="59" height="58" fill="#D9D9D9"/>
</mask>
<g mask="url(#mask0_31_31)">
<path d="M49.4361 52.0327L45.5783 48.2404C45.4207 48.2714 45.2789 48.2946 45.1528 48.3101C45.0268 48.3256 44.8849 48.3333 44.7274 48.3333H13.8044C12.7044 48.3333 11.7676 47.953 10.9938 47.1924C10.2201 46.4318 9.83322 45.5108 9.83322 44.4295V14.0306C9.83322 13.8757 9.84109 13.7363 9.85682 13.6123C9.8726 13.4884 9.91199 13.3645 9.97501 13.2405L6.07007 9.38783L7.80983 7.67755L51.19 50.3224L49.4361 52.0327ZM13.8044 45.9166H43.2146L37.0687 39.875H17.2082L23.3541 31.8814L27.9871 37.3979L30.7858 33.6985L12.2916 15.5178V44.4295C12.2916 44.8632 12.4334 45.2195 12.717 45.4984C13.0007 45.7772 13.3631 45.9166 13.8044 45.9166ZM49.1666 41.5062L46.7082 39.0896V13.5705C46.7082 13.1367 46.5664 12.7804 46.2828 12.5016C45.9991 12.2227 45.6367 12.0833 45.1954 12.0833H19.2364L16.778 9.66665H45.1954C46.2954 9.66665 47.2322 10.0469 48.006 10.8076C48.7797 11.5682 49.1666 12.4892 49.1666 13.5705V41.5062Z" fill="#F7F4EF"/>
</g>
</svg>
