<svg width="24" height="24" viewBox="0 0 24 24" fill="none" xmlns="http://www.w3.org/2000/svg">
<path d="M4.01624 23.3528C2.06124 24.0566 0 22.608 0 20.5302V5.15759C0 4.67735 0.205617 4.2629 0.61685 3.91425C1.02808 3.56559 1.51691 3.39127 2.08332 3.39127H17.7499C18.3184 3.39127 18.8114 3.56559 19.2291 3.91425C19.6466 4.2629 19.8554 4.67735 19.8554 5.15759V20.5334C19.8554 22.6103 17.7959 24.0589 15.8412 23.3567L10.932 21.5932C10.2756 21.3575 9.55768 21.3577 8.90152 21.5939L4.01624 23.3528ZM23.0138 21.796C22.5612 21.796 22.1943 21.4291 22.1943 20.9766V1.76629C22.1943 1.67208 22.148 1.58572 22.0554 1.50722C21.9628 1.4287 21.861 1.38944 21.7499 1.38944H4.84472C4.46103 1.38944 4.15 1.07841 4.15 0.694722V0.694722C4.15 0.311037 4.46103 0 4.84472 0H21.7499C22.3163 0 22.8051 0.174327 23.2163 0.522981C23.6276 0.871615 23.8332 1.28605 23.8332 1.76629V20.9766C23.8332 21.4291 23.4663 21.796 23.0138 21.796V21.796Z" fill="#DEAA24"/>
</svg>
